<svg width="209" height="110" viewBox="0 0 209 110" fill="none" xmlns="http://www.w3.org/2000/svg">
<path d="M152.702 54.9246H117.116C117.116 51.9174 115.922 49.0333 113.795 46.9069C111.669 44.7804 108.785 43.5858 105.777 43.5858C102.77 43.5858 99.8861 44.7804 97.7596 46.9069C95.6332 49.0333 94.4386 51.9174 94.4386 54.9246H58.8528C58.8528 42.4794 63.7966 30.544 72.5967 21.7439C81.3968 12.9438 93.3322 8 105.777 8C118.223 8 130.158 12.9438 138.958 21.7439C147.758 30.544 152.702 42.4794 152.702 54.9246Z" fill="#DF4848" stroke="#231F20" stroke-width="4.2896" stroke-linecap="round" stroke-linejoin="round"/>
<path d="M152.702 54.9245C152.702 67.3697 147.758 79.3052 138.958 88.1053C130.158 96.9053 118.223 101.849 105.777 101.849C93.3322 101.849 81.3968 96.9053 72.5967 88.1053C63.7966 79.3052 58.8528 67.3697 58.8528 54.9245H94.4386C94.4386 51.9173 95.6332 49.0332 97.7596 46.9068C99.8861 44.7803 102.77 43.5857 105.777 43.5857C108.785 43.5857 111.669 44.7803 113.795 46.9068C115.922 49.0332 117.116 51.9173 117.116 54.9245H152.702Z" fill="white" stroke="#231F20" stroke-width="4.2896" stroke-linecap="round" stroke-linejoin="round"/>
<path d="M117.116 54.9246H94.4385" stroke="#231F20" stroke-width="4.2896" stroke-linecap="round" stroke-linejoin="round"/>
<path d="M105.777 66.2634C112.04 66.2634 117.116 61.1868 117.116 54.9245C117.116 48.6623 112.04 43.5857 105.777 43.5857C99.515 43.5857 94.4385 48.6623 94.4385 54.9245C94.4385 61.1868 99.515 66.2634 105.777 66.2634Z" fill="white" stroke="#231F20" stroke-width="4.2896" stroke-linecap="round" stroke-linejoin="round"/>
<path d="M3.71244 3.0429C4.42737 12.3227 4.38805 19.0074 3.53728 23.7331C3.13334 25.9565 2.48275 28.7376 3.71244 31.7725C5.39611 35.962 9.67855 38.2069 12.9565 39.3937V99.1942C13.2675 103.806 14.8976 107.259 18.3686 107.109C21.6894 106.969 23.0478 103.602 23.3731 99.1942V39.3937C25.836 38.1926 29.4858 35.9048 31.2624 31.8047C32.6243 28.6697 32.3062 25.8278 32.1203 23.7938C31.6913 19.086 31.4232 12.2584 32.1167 3" stroke="#231F20" stroke-width="4.2896" stroke-linecap="round" stroke-linejoin="round"/>
<path d="M12.9816 3.04297V26.2032" stroke="#231F20" stroke-width="4.2896" stroke-linecap="round" stroke-linejoin="round"/>
<path d="M23.1407 3.04297V26.2032" stroke="#231F20" stroke-width="4.2896" stroke-linecap="round" stroke-linejoin="round"/>
<path d="M182.702 3V98.9833C182.702 103.477 185.633 106.948 188.636 107.005C191.828 107.066 194.763 103.309 194.763 98.4936V67.4619H205.612C207.639 56.96 207.149 46.1273 204.182 35.8512C198.924 17.8277 187.538 7.08942 182.702 3Z" stroke="#231F20" stroke-width="4.2896" stroke-linecap="round" stroke-linejoin="round"/>
</svg>
