<svg xmlns="http://www.w3.org/2000/svg" viewBox="0 0 595.86 303.26"><defs><style>.cls-1{fill:#df4848;}.cls-1,.cls-2,.cls-3{stroke:#231f20;stroke-linecap:round;stroke-linejoin:round;stroke-width:12px;}.cls-2{fill:#fff;}.cls-3{fill:none;}</style></defs><title>Asset 1</title><g id="Layer_2" data-name="Layer 2"><g id="Layer_1-2" data-name="Layer 1"><path class="cls-1" d="M433.91,151.63H334.36a31.72,31.72,0,0,0-63.44,0H171.37a131.27,131.27,0,0,1,262.54,0Z"/><path class="cls-2" d="M433.91,151.63a131.27,131.27,0,0,1-262.54,0h99.55a31.72,31.72,0,0,1,63.44,0Z"/><line class="cls-3" x1="334.36" y1="151.63" x2="270.92" y2="151.63"/><circle class="cls-2" cx="302.64" cy="151.63" r="31.72"/><path class="cls-3" d="M8,6.12C10,32.08,9.89,50.78,7.51,64,6.38,70.22,4.56,78,8,86.49c4.71,11.72,16.69,18,25.86,21.32V275.1C34.73,288,39.29,297.66,49,297.24c9.29-.39,13.09-9.81,14-22.14V107.81c6.89-3.36,17.1-9.76,22.07-21.23,3.81-8.77,2.92-16.72,2.4-22.41C86.27,51,85.52,31.9,87.46,6"/><line class="cls-3" x1="33.93" y1="6.12" x2="33.93" y2="70.91"/><line class="cls-3" x1="62.35" y1="6.12" x2="62.35" y2="70.91"/><path class="cls-3" d="M522.35,6.15V274.66c0,12.57,8.2,22.28,16.6,22.44,8.93.17,17.14-10.34,17.14-23.81V186.48h30.35a189.43,189.43,0,0,0-4-88.43C567.73,47.63,535.88,17.59,522.35,6.15Z"/></g></g></svg>