<svg width="143" height="75" viewBox="0 0 143 75" fill="none" xmlns="http://www.w3.org/2000/svg">
<path d="M104.084 37.4081H79.8172C79.8172 35.3574 79.0025 33.3907 77.5525 31.9407C76.1024 30.4906 74.1358 29.676 72.0851 29.676C70.0344 29.676 68.0677 30.4906 66.6177 31.9407C65.1676 33.3907 64.353 35.3574 64.353 37.4081H40.0866C40.0866 28.9216 43.4579 20.7826 49.4587 14.7817C55.4596 8.78086 63.5986 5.40961 72.0851 5.40961C80.5716 5.40961 88.7105 8.78086 94.7114 14.7817C100.712 20.7826 104.084 28.9216 104.084 37.4081V37.4081Z" stroke="white" stroke-width="2.92513" stroke-linecap="round" stroke-linejoin="round"/>
<path d="M104.083 37.408C104.083 45.8945 100.712 54.0334 94.7114 60.0343C88.7105 66.0352 80.5715 69.4065 72.085 69.4065C63.5985 69.4065 55.4596 66.0352 49.4587 60.0343C43.4578 54.0334 40.0865 45.8945 40.0865 37.408H64.3529C64.3529 35.3573 65.1676 33.3906 66.6176 31.9406C68.0677 30.4905 70.0343 29.6759 72.085 29.6759C74.1357 29.6759 76.1024 30.4905 77.5524 31.9406C79.0025 33.3906 79.8171 35.3573 79.8171 37.408H104.083Z" stroke="white" stroke-width="2.92513" stroke-linecap="round" stroke-linejoin="round"/>
<path d="M72.0851 45.1401C76.3554 45.1401 79.8171 41.6783 79.8171 37.408C79.8171 33.1377 76.3554 29.6759 72.0851 29.6759C67.8147 29.6759 64.353 33.1377 64.353 37.408C64.353 41.6783 67.8147 45.1401 72.0851 45.1401Z" stroke="white" stroke-width="2.92513" stroke-linecap="round" stroke-linejoin="round"/>
<path d="M2.48582 2.02925C2.97334 8.35728 2.94653 12.9156 2.36638 16.1381C2.09093 17.6543 1.64728 19.5508 2.48582 21.6203C3.63393 24.4772 6.55419 26.008 8.78947 26.8173V67.596C9.00154 70.7405 10.1131 73.0953 12.48 72.9929C14.7445 72.8978 15.6708 70.6016 15.8927 67.596V26.8173C17.5722 25.9982 20.061 24.4382 21.2725 21.6422C22.2012 19.5045 21.9842 17.5666 21.8575 16.1796C21.565 12.9692 21.3822 8.3134 21.855 2" stroke="white" stroke-width="2.92513" stroke-linecap="round" stroke-linejoin="round"/>
<path d="M8.80652 2.02924V17.8225" stroke="white" stroke-width="2.92513" stroke-linecap="round" stroke-linejoin="round"/>
<path d="M15.7343 2.02924V17.8225" stroke="white" stroke-width="2.92513" stroke-linecap="round" stroke-linejoin="round"/>
<path d="M124.541 2V67.4522C124.541 70.5163 126.54 72.8832 128.587 72.9222C130.764 72.9636 132.766 70.4017 132.766 67.1182V45.9574H140.164C141.546 38.7959 141.211 31.409 139.189 24.4016C135.603 12.1112 127.839 4.78862 124.541 2Z" stroke="white" stroke-width="2.92513" stroke-linecap="round" stroke-linejoin="round"/>
</svg>
